<svg width="24" height="24" viewBox="0 0 24 24" fill="none" xmlns="http://www.w3.org/2000/svg">
<path d="M21.51 4.44C21.51 4.44 21.25 3.09 19.68 2.69C19.64 2.68 19.52 2.64 19.49 2.64C16.35 1.79 7.89 1.79 4.75 2.64C4.75 2.64 4.6 2.68 4.56 2.69C2.98 3.09 2.73 4.44 2.73 4.44C1.76 7.39 1.76 16.86 2.73 19.81C2.73 19.81 2.99 21.16 4.57 21.56C4.61 21.57 4.65 21.58 4.69 21.59C4.71 21.59 4.76 21.61 4.76 21.61C7.9 22.46 16.36 22.46 19.5 21.61C19.5 21.61 19.54 21.6 19.57 21.59C19.61 21.58 19.65 21.57 19.69 21.56C21.27 21.16 21.53 19.81 21.53 19.81C22.5 16.86 22.5 7.39 21.53 4.44H21.51Z" fill="white" stroke="#BABABA" stroke-width="2" stroke-miterlimit="10"/>
<path d="M6 11.35L9.38 14.72C9.64 14.98 10.06 15 10.34 14.77L17.54 9" stroke="#BABABA" stroke-width="2" stroke-miterlimit="10" stroke-linecap="round"/>
</svg>
