<svg width="24" height="24" viewBox="0 0 24 24" fill="none" xmlns="http://www.w3.org/2000/svg">
<path d="M21.51 4.43994C21.51 4.43994 21.25 3.08994 19.68 2.68994C19.64 2.67994 19.52 2.63994 19.49 2.63994C16.35 1.78994 7.89 1.78994 4.75 2.63994C4.75 2.63994 4.6 2.67994 4.56 2.68994C2.98 3.08994 2.73 4.43994 2.73 4.43994C1.76 7.38994 1.76 16.8599 2.73 19.8099C2.73 19.8099 2.99 21.1599 4.57 21.5599C4.61 21.5699 4.65 21.5799 4.69 21.5899C4.71 21.5899 4.76 21.6099 4.76 21.6099C7.9 22.4599 16.36 22.4599 19.5 21.6099C19.5 21.6099 19.54 21.5999 19.57 21.5899C19.61 21.5799 19.65 21.5699 19.69 21.5599C21.27 21.1599 21.53 19.8099 21.53 19.8099C22.5 16.8599 22.5 7.38994 21.53 4.43994H21.51Z" fill="#3B52A0" stroke="#3B52A0" stroke-width="2" stroke-miterlimit="10"/>
<g clip-path="url(#clip0_168_4415)">
<path d="M6 11.35L9.38 14.72C9.64 14.98 10.06 15 10.34 14.77L17.54 9" stroke="white" stroke-width="2" stroke-miterlimit="10" stroke-linecap="round"/>
</g>
<defs>
<clipPath id="clip0_168_4415">
<rect width="13.54" height="7.94" fill="white" transform="translate(5 8)"/>
</clipPath>
</defs>
</svg>
