<svg width="24" height="24" viewBox="0 0 24 24" fill="none" xmlns="http://www.w3.org/2000/svg">
<g clip-path="url(#clip0_42_698)">
<path d="M23.2119 3.76792C23.1198 3.3686 22.5569 1.36177 20.2234 0.778157L19.9983 0.706485L19.8857 0.686007C18.2277 0.255973 15.2802 0 11.9949 0C8.70958 0 5.77227 0.255973 4.10404 0.686007L3.86864 0.74744C1.44306 1.36177 0.880158 3.3686 0.808517 3.70648C-0.26611 7.11604 -0.26611 16.884 0.788048 20.2321C1.03368 21.3276 1.97525 22.7816 3.80724 23.2321L4.0938 23.314C5.7518 23.744 8.69935 24 12.0051 24C15.3109 24 18.3096 23.744 19.9266 23.3038L20.1313 23.2423C22.0145 22.7713 22.9663 21.3174 23.1915 20.2935C24.2661 16.884 24.2661 7.11604 23.2119 3.76792V3.76792ZM16.6004 12.7679H12.7727V16.5973C12.7727 17.0171 12.4247 17.3652 12.0051 17.3652C11.5855 17.3652 11.2375 17.0171 11.2375 16.5973V12.7679H7.4098C6.99018 12.7679 6.6422 12.4198 6.6422 12C6.6422 11.5802 6.99018 11.2321 7.4098 11.2321H11.2375V7.40273C11.2375 6.98293 11.5855 6.63481 12.0051 6.63481C12.4247 6.63481 12.7727 6.98293 12.7727 7.40273V11.2321H16.6004C17.02 11.2321 17.368 11.5802 17.368 12C17.368 12.4198 17.02 12.7679 16.6004 12.7679V12.7679Z" fill="white"/>
</g>
<defs>
<clipPath id="clip0_42_698">
<rect width="24" height="24" fill="white"/>
</clipPath>
</defs>
</svg>
