<svg width="24" height="24" viewBox="0 0 24 24" fill="none" xmlns="http://www.w3.org/2000/svg">
<g clip-path="url(#clip0_42_711)">
<path d="M8.84325 23.4C8.66325 23.07 8.44325 22.74 8.19325 22.41C6.65325 20.44 3.21326 17.52 4.16326 15.98C4.16326 15.98 4.76327 14.55 6.30327 15.48C7.84327 16.41 8.87325 19.07 8.87325 15.17V6.54001C8.87325 6.54001 8.87326 4.82001 10.4133 4.82001C11.9533 4.82001 11.8732 6.02001 11.8732 7.14001C11.8732 8.26001 11.8732 11.17 11.8732 11.17C11.8732 11.17 12.0433 9.72001 13.3333 9.80001C13.3333 9.80001 14.7033 9.80001 14.7033 11.77C14.7033 11.77 14.9633 10.74 16.2433 10.74C17.5233 10.74 17.6133 11.94 17.6133 12.71C17.6133 12.42 18.1332 12.05 18.3432 11.96C18.9232 11.71 19.7633 11.9 20.1933 12.37C20.8633 13.1 20.6032 14.11 20.6232 15C20.6432 15.89 20.6533 16.69 20.6333 17.54C20.6033 19.31 20.5933 21.4 19.7533 23.01C19.6833 23.14 19.6232 23.27 19.5632 23.4" stroke="#EE7128" stroke-width="1.5" stroke-linecap="round" stroke-linejoin="round"/>
<path d="M11.8833 10.75V14.97" stroke="#EE7128" stroke-width="1.5" stroke-linecap="round" stroke-linejoin="round"/>
<path d="M14.6633 11.17V14.97" stroke="#EE7128" stroke-width="1.5" stroke-linecap="round" stroke-linejoin="round"/>
<path d="M17.6333 12.72V14.97" stroke="#EE7128" stroke-width="1.5" stroke-linecap="round" stroke-linejoin="round"/>
<path d="M11.9633 0L11.4233 1.81" stroke="#EE7128" stroke-linecap="round" stroke-linejoin="round"/>
<path d="M7.21326 0.5L8.12326 2.16" stroke="#EE7128" stroke-linecap="round" stroke-linejoin="round"/>
<path d="M4.22327 4.21001L6.03326 4.75001" stroke="#EE7128" stroke-linecap="round" stroke-linejoin="round"/>
<path d="M4.72327 8.95L6.38327 8.05" stroke="#EE7128" stroke-linecap="round" stroke-linejoin="round"/>
<path d="M16.1733 7.74L14.3633 7.2" stroke="#EE7128" stroke-linecap="round" stroke-linejoin="round"/>
<path d="M15.6733 3L14.0133 3.9" stroke="#EE7128" stroke-linecap="round" stroke-linejoin="round"/>
</g>
<defs>
<clipPath id="clip0_42_711">
<rect width="24" height="24" fill="white"/>
</clipPath>
</defs>
</svg>
