<svg width="24" height="24" viewBox="0 0 24 24" fill="none" xmlns="http://www.w3.org/2000/svg">
<path d="M21.26 4.19C21.26 4.19 21 2.84 19.43 2.44C19.39 2.43 19.35 2.42 19.31 2.4C19.29 2.4 19.27 2.39 19.25 2.38C16.11 1.53 7.64999 1.53 4.50999 2.38C4.50999 2.38 4.46999 2.39 4.44999 2.4C4.40999 2.41 4.36999 2.42 4.32999 2.44C2.74999 2.84 2.49999 4.19 2.49999 4.19C1.52999 7.14 1.52999 16.61 2.49999 19.56C2.49999 19.56 2.75999 20.91 4.33999 21.31C4.37999 21.32 4.41999 21.33 4.45999 21.34C4.47999 21.34 4.49999 21.35 4.52999 21.36C7.66999 22.21 16.13 22.21 19.27 21.36C19.27 21.36 19.31 21.35 19.34 21.34C19.38 21.33 19.42 21.32 19.46 21.31C21.04 20.91 21.3 19.56 21.3 19.56C22.27 16.61 22.27 7.14 21.3 4.19H21.26Z" stroke="white" stroke-width="1.5" stroke-miterlimit="10"/>
<path d="M11.81 6.41C13.58 6.41 15.02 7.85 15.02 9.62V11.54H8.60001V9.62C8.60001 7.85 10.04 6.41 11.81 6.41V6.41Z" stroke="white" stroke-width="0.86" stroke-miterlimit="10"/>
<path d="M15.14 10.31H8.47999C7.87999 10.31 7.39999 10.8 7.39999 11.39V16.04C7.39999 16.64 7.88999 17.12 8.47999 17.12H15.14C15.74 17.12 16.22 16.63 16.22 16.04V11.39C16.22 10.79 15.73 10.31 15.14 10.31ZM11.81 15.07C11.2 15.07 10.7 14.57 10.7 13.96C10.7 13.46 11.04 13.05 11.49 12.91V12.71C11.49 12.53 11.64 12.38 11.82 12.38C12 12.38 12.15 12.53 12.15 12.71V12.91C12.6 13.06 12.92 13.46 12.92 13.95C12.92 14.56 12.42 15.06 11.81 15.06V15.07Z" fill="white"/>
</svg>
