<svg width="24" height="24" viewBox="0 0 24 24" fill="none" xmlns="http://www.w3.org/2000/svg">
<path d="M21.5 4.4475C21.5 4.4475 21.24 3.0975 19.67 2.6975C19.63 2.6875 19.59 2.6775 19.55 2.6575C19.53 2.6575 19.51 2.6475 19.49 2.6375C16.35 1.7875 7.89001 1.7875 4.75001 2.6375C4.75001 2.6375 4.71002 2.6475 4.69002 2.6575C4.65002 2.6675 4.61001 2.6775 4.57001 2.6975C2.99001 3.0975 2.74001 4.4475 2.74001 4.4475C1.77001 7.3975 1.77001 16.8675 2.74001 19.8175C2.74001 19.8175 3.00002 21.1675 4.58002 21.5675C4.62002 21.5775 4.66002 21.5875 4.70002 21.5975C4.72002 21.5975 4.74002 21.6075 4.77002 21.6175C7.91002 22.4675 16.37 22.4675 19.51 21.6175C19.51 21.6175 19.55 21.6075 19.58 21.5975C19.62 21.5875 19.66 21.5775 19.7 21.5675C21.28 21.1675 21.54 19.8175 21.54 19.8175C22.51 16.8675 22.51 7.3975 21.54 4.4475H21.5Z" stroke="#EE7128" stroke-width="1.5" stroke-miterlimit="10"/>
<path d="M2 9.5375H22.19" stroke="#EE7128" stroke-miterlimit="10"/>
<path d="M2 15.9675H22.19" stroke="#EE7128" stroke-miterlimit="10"/>
<path d="M8.89999 22.2475V2.8675" stroke="#EE7128" stroke-miterlimit="10"/>
<path d="M15.45 22.2475V2.8675" stroke="#EE7128" stroke-miterlimit="10"/>
</svg>
