<svg width="24" height="24" viewBox="0 0 24 24" fill="none" xmlns="http://www.w3.org/2000/svg">
<path d="M8.3075 10.1275C9.41206 10.1275 10.3075 9.23207 10.3075 8.1275C10.3075 7.02293 9.41206 6.1275 8.3075 6.1275C7.20293 6.1275 6.3075 7.02293 6.3075 8.1275C6.3075 9.23207 7.20293 10.1275 8.3075 10.1275Z" stroke="white" stroke-miterlimit="10"/>
<path d="M2.34747 18.1875L8.90747 13.5175L13.3375 16.4775L18.3075 10.1275L22.0775 16.0075" stroke="white" stroke-linecap="round" stroke-linejoin="round"/>
<path d="M21.4875 4.4475C21.4875 4.4475 21.2275 3.0975 19.6575 2.6975C19.6175 2.6875 19.5775 2.6775 19.5375 2.6575C19.5175 2.6575 19.4975 2.6475 19.4775 2.6375C16.3375 1.7875 7.87749 1.7875 4.73749 2.6375C4.73749 2.6375 4.6975 2.6475 4.6775 2.6575C4.6375 2.6675 4.5975 2.6775 4.5575 2.6975C2.9775 3.0975 2.7275 4.4475 2.7275 4.4475C1.7575 7.3975 1.7575 16.8675 2.7275 19.8175C2.7275 19.8175 2.9875 21.1675 4.5675 21.5675C4.6075 21.5775 4.64751 21.5875 4.68751 21.5975C4.70751 21.5975 4.7275 21.6075 4.7575 21.6175C7.8975 22.4675 16.3575 22.4675 19.4975 21.6175C19.4975 21.6175 19.5375 21.6075 19.5675 21.5975C19.6075 21.5875 19.6475 21.5775 19.6875 21.5675C21.2675 21.1675 21.5275 19.8175 21.5275 19.8175C22.4975 16.8675 22.4975 7.3975 21.5275 4.4475H21.4875Z" stroke="white" stroke-width="1.5" stroke-miterlimit="10"/>
</svg>
