<svg width="24" height="24" viewBox="0 0 24 24" fill="none" xmlns="http://www.w3.org/2000/svg">
<path d="M4.67999 2.64085C4.67999 2.64085 4.6 2.66085 4.56 2.68085C2.98 3.08085 2.72998 4.43085 2.72998 4.43085C2.23998 5.90085 2 9.01085 2 12.1108C2 15.2108 2.23998 18.3208 2.72998 19.7908C2.72998 19.7908 2.98998 21.1408 4.56998 21.5408C4.60998 21.5508 4.65 21.5608 4.69 21.5708C4.71 21.5708 4.72998 21.5808 4.75998 21.5908C6.32998 22.0108 9.23 22.2208 12.13 22.2208C15.03 22.2208 17.93 22.0108 19.5 21.5808C19.5 21.5808 19.54 21.5708 19.57 21.5608C19.61 21.5508 19.65 21.5408 19.69 21.5308C21.27 21.1308 21.53 19.7808 21.53 19.7808C22.02 18.3108 22.26 15.2008 22.26 12.1008C22.26 9.00085 22.02 5.89085 21.53 4.42085C21.53 4.42085 21.27 3.07085 19.7 2.67085C19.66 2.66085 19.62 2.65085 19.58 2.63085C19.56 2.63085 19.54 2.62085 19.52 2.61085C18.26 2.27085 16.16 2.07085 13.88 2.00085C12.93 1.97085 12.14 2.74085 12.14 3.69085V14.1008" stroke="#EE7128" stroke-width="1.5" stroke-miterlimit="10" stroke-linecap="round"/>
<path d="M16.17 11.2908L12.49 14.9708C12.28 15.1808 11.93 15.1808 11.72 14.9708L8.03998 11.2908" stroke="#EE7128" stroke-width="1.5" stroke-miterlimit="10" stroke-linecap="round"/>
</svg>
