<svg width="24" height="24" viewBox="0 0 24 24" fill="none" xmlns="http://www.w3.org/2000/svg">
<rect x="0.5" y="0.5" width="23" height="23" rx="2.5" fill="#F4F5F5"/>
<path d="M18.5646 9.66797L16.9507 8.05402L18.1555 6.84924C18.4055 6.59919 18.4055 6.19002 18.1555 5.93997C17.9054 5.68992 17.4962 5.68992 17.2462 5.93997L16.0414 7.14475L14.4275 5.5308C13.9425 5.04585 13.1621 5.05343 12.6847 5.5308L11.2677 6.94774C11.0177 7.19779 11.0177 7.59181 11.2677 7.84186L16.2536 12.8277C16.5036 13.0777 16.8976 13.0777 17.1477 12.8277L18.5646 11.4107C19.0496 10.9258 19.042 10.1453 18.5646 9.66797V9.66797Z" fill="#565656"/>
<path d="M12.8277 16.0319L12.4867 15.691L14.1613 14.0164C14.4113 13.7664 14.4113 13.3572 14.1613 13.1071C13.9112 12.8571 13.5021 12.8571 13.252 13.1071L11.5774 14.7817L9.07696 12.2812L10.7515 10.6066C11.0016 10.3566 11.0016 9.94743 10.7515 9.69738C10.5015 9.44733 10.0923 9.44733 9.84226 9.69738L8.16769 11.3719L7.84187 11.0461C7.59182 10.7961 7.1978 10.7961 6.94776 11.0461L5.53081 12.4631C5.04587 12.948 5.05345 13.7285 5.53081 14.2058L7.14476 15.8198L5.93998 17.0246C5.68993 17.2746 5.68993 17.6838 5.93998 17.9338C6.19003 18.1839 6.5992 18.1839 6.84925 17.9338L8.05403 16.7291L9.66799 18.343C10.1529 18.828 10.9334 18.8204 11.4108 18.343L12.8277 16.9261C13.0777 16.676 13.0777 16.282 12.8277 16.0319Z" fill="#565656"/>
<rect x="0.5" y="0.5" width="23" height="23" rx="2.5" stroke="#DCE2EA"/>
</svg>
