<svg width="24" height="24" viewBox="0 0 24 24" fill="none" xmlns="http://www.w3.org/2000/svg">
<rect x="0.5" y="0.5" width="23" height="23" rx="2.5" fill="#F4F5F5"/>
<path fill-rule="evenodd" clip-rule="evenodd" d="M9.75397 8.01587C8.6494 8.01587 7.75397 8.9113 7.75397 10.0159V16.5714C7.75397 17.676 8.6494 18.5714 9.75397 18.5714H14.8016C15.9062 18.5714 16.8016 17.676 16.8016 16.5714V10.0159C16.8016 8.9113 15.9062 8.01587 14.8016 8.01587H9.75397ZM14.583 11.9949L13.1807 13.3973L14.583 14.7997C14.8017 15.0184 14.8017 15.3803 14.583 15.5989C14.4699 15.712 14.3267 15.7648 14.1834 15.7648C14.0402 15.7648 13.8969 15.712 13.7838 15.5989L12.3815 14.1965L10.9791 15.5989C10.866 15.712 10.7227 15.7648 10.5795 15.7648C10.4362 15.7648 10.293 15.712 10.1799 15.5989C9.96121 15.3803 9.96121 15.0184 10.1799 14.7997L11.5822 13.3973L10.1799 11.9949C9.96121 11.7763 9.96121 11.4144 10.1799 11.1957C10.3985 10.9771 10.7604 10.9771 10.9791 11.1957L12.3815 12.5981L13.7838 11.1957C14.0025 10.9771 14.3644 10.9771 14.583 11.1957C14.8017 11.4144 14.8017 11.7763 14.583 11.9949Z" fill="#992929"/>
<rect x="7" y="5.75397" width="10.5556" height="1.50794" rx="0.753968" fill="#992929"/>
<rect x="10.0159" y="5" width="4.52381" height="1.50794" rx="0.753968" fill="#992929"/>
<rect x="0.5" y="0.5" width="23" height="23" rx="2.5" stroke="#DCE2EA"/>
</svg>
