<svg width="35" height="39" viewBox="0 0 35 39" fill="none" xmlns="http://www.w3.org/2000/svg">
<g clip-path="url(#clip0_106_5196)">
<path d="M17.4905 5.42286C18.7446 5.42286 19.7613 4.41678 19.7613 3.17571C19.7613 1.93465 18.7446 0.928572 17.4905 0.928572C16.2364 0.928572 15.2197 1.93465 15.2197 3.17571C15.2197 4.41678 16.2364 5.42286 17.4905 5.42286Z" stroke="#3B52A0" stroke-width="2" stroke-miterlimit="10" stroke-linecap="round"/>
<path d="M17.4905 38.0714C18.7446 38.0714 19.7613 37.0653 19.7613 35.8243C19.7613 34.5832 18.7446 33.5771 17.4905 33.5771C16.2364 33.5771 15.2197 34.5832 15.2197 35.8243C15.2197 37.0653 16.2364 38.0714 17.4905 38.0714Z" stroke="#3B52A0" stroke-width="2" stroke-miterlimit="10" stroke-linecap="round"/>
<path d="M3.20925 29.9186C4.46337 29.9186 5.48003 28.9125 5.48003 27.6714C5.48003 26.4304 4.46337 25.4243 3.20925 25.4243C1.95514 25.4243 0.938477 26.4304 0.938477 27.6714C0.938477 28.9125 1.95514 29.9186 3.20925 29.9186Z" stroke="#3B52A0" stroke-width="2" stroke-miterlimit="10" stroke-linecap="round"/>
<path d="M31.7908 13.5757C33.0449 13.5757 34.0616 12.5696 34.0616 11.3286C34.0616 10.0875 33.0449 9.08143 31.7908 9.08143C30.5367 9.08143 29.52 10.0875 29.52 11.3286C29.52 12.5696 30.5367 13.5757 31.7908 13.5757Z" stroke="#3B52A0" stroke-width="2" stroke-miterlimit="10" stroke-linecap="round"/>
<path d="M31.7908 29.9186C33.0449 29.9186 34.0616 28.9125 34.0616 27.6714C34.0616 26.4304 33.0449 25.4243 31.7908 25.4243C30.5367 25.4243 29.52 26.4304 29.52 27.6714C29.52 28.9125 30.5367 29.9186 31.7908 29.9186Z" stroke="#3B52A0" stroke-width="2" stroke-miterlimit="10" stroke-linecap="round"/>
<path d="M3.20925 13.5757C4.46337 13.5757 5.48003 12.5696 5.48003 11.3286C5.48003 10.0875 4.46337 9.08143 3.20925 9.08143C1.95514 9.08143 0.938477 10.0875 0.938477 11.3286C0.938477 12.5696 1.95514 13.5757 3.20925 13.5757Z" stroke="#3B52A0" stroke-width="2" stroke-miterlimit="10" stroke-linecap="round"/>
<path d="M17.4907 33.5771V25.9257" stroke="#3B52A0" stroke-width="2" stroke-miterlimit="10"/>
<path d="M17.4907 5.42286V13.0743" stroke="#3B52A0" stroke-width="2" stroke-miterlimit="10"/>
<path d="M11.9169 22.7129L5.14209 26.5943" stroke="#3B52A0" stroke-width="2" stroke-miterlimit="10"/>
<path d="M29.783 12.5171L23.1021 16.3243" stroke="#3B52A0" stroke-width="2" stroke-miterlimit="10"/>
<path d="M5.19824 12.5171L11.898 16.3243" stroke="#3B52A0" stroke-width="2" stroke-miterlimit="10"/>
<path d="M29.8393 26.5943L23.0645 22.7129" stroke="#3B52A0" stroke-width="2" stroke-miterlimit="10"/>
<path d="M17.4909 25.9257C21.077 25.9257 23.9842 23.0488 23.9842 19.5C23.9842 15.9512 21.077 13.0743 17.4909 13.0743C13.9047 13.0743 10.9976 15.9512 10.9976 19.5C10.9976 23.0488 13.9047 25.9257 17.4909 25.9257Z" stroke="#3B52A0" stroke-width="2" stroke-miterlimit="10" stroke-linecap="round"/>
</g>
<defs>
<clipPath id="clip0_106_5196">
<rect width="35" height="39" fill="white"/>
</clipPath>
</defs>
</svg>
