<svg width="24" height="24" viewBox="0 0 24 24" fill="none" xmlns="http://www.w3.org/2000/svg">
<path d="M11.245 2.82419C8.59284 2.82419 5.94071 3.02464 4.49128 3.41013C4.49128 3.41013 4.46045 3.41013 4.42961 3.41013C4.39877 3.41013 4.35251 3.42554 4.32167 3.44096C2.87225 3.81103 2.64096 5.04458 2.64096 5.04458C1.74663 7.74297 1.74663 16.4241 2.64096 19.1071C2.64096 19.1071 2.87225 20.3406 4.32167 20.7107C4.35251 20.7107 4.39877 20.7261 4.42961 20.7415C4.44503 20.7415 4.46045 20.7415 4.49128 20.7569C7.37471 21.5279 15.1152 21.5279 17.9833 20.7569C17.9833 20.7569 18.0141 20.7569 18.0449 20.7569C18.0758 20.7569 18.122 20.7415 18.1529 20.7261C19.6023 20.356 19.8336 19.1225 19.8336 19.1225C20.1882 18.0585 20.3887 16.0849 20.4658 13.9261" stroke="#343434" stroke-width="1.5" stroke-miterlimit="10" stroke-linecap="round"/>
<g clip-path="url(#clip0_237_4146)">
<path d="M21.404 2.07303C19.9733 0.642322 17.489 0.642322 16.0693 2.07303L9.54795 8.58333H9.55904C9.45923 8.72751 9.3705 8.87169 9.33723 9.03806L9.30396 9.16005L9.4925 12.7202C9.45923 13.064 9.57013 13.4078 9.82522 13.6518C10.0803 13.8958 10.413 14.0178 10.7568 13.9846L14.317 14.1731L14.439 14.1398C14.6054 14.0955 14.7495 14.0178 14.8715 13.918H14.8826L21.404 7.40771C22.1138 6.6979 22.5131 5.74409 22.5131 4.73483C22.5131 3.72556 22.1249 2.78285 21.404 2.06194V2.07303ZM14.6164 11.844L11.633 8.8606L15.0823 5.41137L18.0657 8.39479L14.6164 11.844V11.844ZM11.1339 12.3431L11.0452 10.624L12.853 12.4318L11.1339 12.3431V12.3431ZM20.2284 6.23208L19.2413 7.21917L16.2579 4.23574L17.245 3.24866C18.0435 2.45012 19.4299 2.45012 20.2284 3.24866C20.6277 3.64793 20.8495 4.18029 20.8495 4.74592C20.8495 5.31155 20.6277 5.84391 20.2284 6.24317V6.23208Z" fill="#343434"/>
</g>
<defs>
<clipPath id="clip0_237_4146">
<rect width="13.6084" height="13.5751" fill="white" transform="translate(9.30396 1)"/>
</clipPath>
</defs>
</svg>
