<svg width="24" height="24" viewBox="0 0 24 24" fill="none" xmlns="http://www.w3.org/2000/svg">
<path d="M15.3775 20.3375C18.034 20.3375 20.1875 18.184 20.1875 15.5275C20.1875 12.871 18.034 10.7175 15.3775 10.7175C12.721 10.7175 10.5675 12.871 10.5675 15.5275C10.5675 18.184 12.721 20.3375 15.3775 20.3375Z" stroke="#8D74F2" stroke-width="1.5" stroke-miterlimit="10"/>
<path d="M19.2476 18.7375L21.8376 21.1075" stroke="#8D74F2" stroke-width="1.5" stroke-miterlimit="10" stroke-linecap="round"/>
<path d="M15.0675 12.6575C15.0675 12.6575 17.0875 12.1775 17.9675 14.6275" stroke="#8D74F2" stroke-width="0.59" stroke-miterlimit="10" stroke-linecap="round"/>
<path d="M22.2175 12.1275C22.2175 9.0275 21.9775 5.9175 21.4875 4.4475C21.4875 4.4475 21.2275 3.0975 19.6575 2.6975C19.6175 2.6875 19.5775 2.6775 19.5375 2.6575C19.5175 2.6575 19.4975 2.6475 19.4775 2.6375C16.3375 1.7875 7.8775 1.7875 4.7375 2.6375C4.7375 2.6375 4.6975 2.6475 4.6775 2.6575C4.6375 2.6675 4.5975 2.6775 4.5575 2.6975C2.9775 3.0975 2.7275 4.4475 2.7275 4.4475C1.7575 7.3975 1.7575 16.8675 2.7275 19.8175C2.7275 19.8175 2.9875 21.1675 4.5675 21.5675C4.6075 21.5775 4.6475 21.5875 4.6875 21.5975C4.7075 21.5975 4.7275 21.6075 4.7575 21.6175C6.3275 22.0375 9.2275 22.2475 12.1275 22.2475" stroke="#3B52A0" stroke-width="1.5" stroke-miterlimit="10" stroke-linecap="round"/>
<path d="M5.77747 7.6275H16.2075" stroke="#3B52A0" stroke-width="1.5" stroke-linecap="round" stroke-linejoin="round"/>
<path d="M5.77747 11.7675H9.06747" stroke="#3B52A0" stroke-width="1.5" stroke-linecap="round" stroke-linejoin="round"/>
<path d="M5.77747 15.9075H7.79747" stroke="#3B52A0" stroke-width="1.5" stroke-linecap="round" stroke-linejoin="round"/>
</svg>
