<svg width="24" height="24" viewBox="0 0 24 24" fill="none" xmlns="http://www.w3.org/2000/svg">
<path d="M22 4.03126C21.96 3.84126 21.56 2.20126 19.66 1.72126L19.38 1.64126C16.1 0.781255 7.65 0.791255 4.37 1.64126L4.13 1.71126C2.22 2.19126 1.8 3.79126 1.75 4.02126C0.75 7.17126 0.75 16.5613 1.75 19.7113C1.8 19.9413 2.22 21.5413 4.11 22.0113L4.37 22.0813C6.01 22.5113 8.94 22.7213 11.87 22.7213C14.8 22.7213 17.81 22.5013 19.44 22.0613L19.61 22.0113C21.55 21.5213 21.96 19.8813 22 19.6913C22.99 16.5313 22.99 7.17126 22 4.01126V4.03126ZM13.84 9.95125C13.84 9.88125 13.9 9.83125 13.96 9.83125H15.3C15.37 9.83125 15.42 9.89125 15.42 9.95125V11.1513C15.42 11.2213 15.36 11.2713 15.3 11.2713H13.96C13.9 11.2713 13.85 11.2213 13.84 11.1513V9.95125ZM11.97 6.51126C11.97 6.44126 12.03 6.39126 12.09 6.39126H13.43C13.49 6.39126 13.55 6.45126 13.55 6.51126V7.71126C13.55 7.78126 13.49 7.83126 13.43 7.83126H12.09C12.03 7.83126 11.97 7.77126 11.97 7.71126V6.51126ZM11.97 8.23126C11.97 8.16126 12.03 8.11126 12.09 8.11126H13.43C13.49 8.11126 13.55 8.17126 13.55 8.23126V9.43126C13.55 9.49126 13.49 9.55126 13.43 9.55126H12.09C12.03 9.55126 11.97 9.49126 11.97 9.43126V8.23126ZM11.97 9.95125C11.97 9.88125 12.03 9.83125 12.09 9.83125H13.43C13.5 9.83125 13.55 9.89125 13.55 9.95125V11.1513C13.55 11.2213 13.49 11.2713 13.43 11.2713H12.09C12.03 11.2713 11.97 11.2213 11.97 11.1513V9.95125ZM10.11 8.23126C10.11 8.16126 10.17 8.11126 10.23 8.11126H11.57C11.64 8.11126 11.69 8.17126 11.69 8.23126V9.43126C11.69 9.49126 11.63 9.55126 11.57 9.55126H10.23C10.16 9.55126 10.11 9.49126 10.11 9.43126V8.23126ZM10.11 9.95125C10.11 9.88125 10.17 9.83125 10.23 9.83125H11.57C11.64 9.83125 11.69 9.89125 11.69 9.95125V11.1513C11.69 11.2213 11.63 11.2713 11.57 11.2713H10.23C10.16 11.2713 10.11 11.2213 10.11 11.1513V9.95125ZM8.22 8.23126C8.22 8.16126 8.28 8.11126 8.34 8.11126H9.68C9.75 8.11126 9.8 8.17126 9.8 8.23126V9.43126C9.8 9.49126 9.74 9.55126 9.68 9.55126H8.34C8.28 9.55126 8.23 9.49126 8.22 9.43126V8.23126ZM8.22 9.95125C8.22 9.88125 8.28 9.83125 8.34 9.83125H9.68C9.75 9.83125 9.8 9.89125 9.8 9.95125V11.1513C9.8 11.2213 9.74 11.2713 9.68 11.2713H8.34C8.28 11.2713 8.23 11.2213 8.22 11.1513V9.95125ZM6.37 9.95125C6.37 9.88125 6.43 9.83125 6.49 9.83125H7.83C7.9 9.83125 7.95 9.89125 7.95 9.95125V11.1513C7.95 11.2213 7.89 11.2713 7.83 11.2713H6.49C6.43 11.2713 6.38 11.2213 6.37 11.1513V9.95125ZM20.25 10.8113C20.14 11.0613 20 11.2913 19.8 11.4713C19.5 11.7713 18.97 12.1113 18.1 12.1113H17.96C17.61 13.0013 17.14 14.0013 16.34 14.9013C15.87 15.4413 15.31 15.9013 14.69 16.2613C13.93 16.6913 13.12 16.9913 12.26 17.1413C11.65 17.2513 11.02 17.3113 10.4 17.3113C9.02 17.3113 7.8 17.0513 7.05 16.5913C6.39 16.1813 5.87 15.5113 5.52 14.6013C5.22 13.7713 5.07 12.9013 5.08 12.0213C5.08 11.7613 5.29 11.5513 5.55 11.5513H15.59C15.72 11.5513 16.33 11.4913 16.7 11.2813C16.39 10.7913 16.3 10.2113 16.45 9.59126C16.53 9.27126 16.66 8.96126 16.84 8.69126L16.98 8.49126L17.2 8.62126C17.2 8.62126 18.13 9.17125 18.29 10.2513C18.5 10.2113 18.72 10.1913 18.93 10.1913C19.75 10.1913 20.13 10.4813 20.17 10.5113L20.32 10.6213L20.26 10.8013L20.25 10.8113Z" fill="#343434"/>
</svg>
