<svg width="24" height="24" viewBox="0 0 24 24" fill="none" xmlns="http://www.w3.org/2000/svg">
<path d="M16.3505 7.80725L20.9625 12.4193L16.3505 17.0233" stroke="white" stroke-width="1.5" stroke-miterlimit="10" stroke-linecap="round"/>
<path d="M11.7385 12.4193H20.9625" stroke="white" stroke-width="1.5" stroke-miterlimit="10" stroke-linecap="round"/>
<path d="M12.1497 3.96118C9.81141 3.96118 7.47314 4.1305 6.20725 4.47721C6.20725 4.47721 6.175 4.48528 6.15887 4.49334C6.12662 4.5014 6.09437 4.50947 6.06211 4.52559C4.78816 4.84811 4.58658 5.93662 4.58658 5.93662C3.80447 8.31521 3.80447 15.9509 4.58658 18.3295C4.58658 18.3295 4.79622 19.418 6.07018 19.7405C6.10243 19.7485 6.13468 19.7566 6.16693 19.7647C6.18306 19.7647 6.19918 19.7727 6.22337 19.7808C7.48927 20.1194 9.81947 20.2888 12.1497 20.2888" stroke="white" stroke-width="1.5" stroke-miterlimit="10" stroke-linecap="round"/>
</svg>
