<svg width="24" height="24" viewBox="0 0 24 24" fill="none" xmlns="http://www.w3.org/2000/svg">
<path d="M4.81421 12.4891L8.68563 5.78561C8.80006 5.58536 9.09566 5.52815 9.34359 5.65211L9.77269 5.88096C10.0206 6.01446 10.1255 6.29099 10.0206 6.50077L7.27438 11.8979" stroke="#272B40" stroke-width="0.81" stroke-linecap="round" stroke-linejoin="round"/>
<path d="M15.9517 2C18.1162 4.16457 18.1162 7.68318 15.9517 9.84774" stroke="#272B40" stroke-width="0.84" stroke-miterlimit="10"/>
<path d="M14.7979 3.14426C16.3331 4.67948 16.3331 7.15872 14.7979 8.69394" stroke="#272B40" stroke-width="0.84" stroke-miterlimit="10"/>
<path d="M13.5201 4.43155C14.3402 5.2516 14.3402 6.59611 13.5201 7.41617" stroke="#272B40" stroke-width="0.84" stroke-miterlimit="10"/>
<path d="M20.8625 12.3174H2.79268C1.80261 12.3174 1 13.1201 1 14.1101V19.3356C1 20.3257 1.80261 21.1283 2.79268 21.1283H20.8625C21.8526 21.1283 22.6552 20.3257 22.6552 19.3356V14.1101C22.6552 13.1201 21.8526 12.3174 20.8625 12.3174Z" stroke="#272B40" stroke-width="1.22" stroke-miterlimit="10"/>
<path d="M4.8143 17.8767C5.48839 17.8767 6.03485 17.3302 6.03485 16.6561C6.03485 15.982 5.48839 15.4356 4.8143 15.4356C4.14021 15.4356 3.59375 15.982 3.59375 16.6561C3.59375 17.3302 4.14021 17.8767 4.8143 17.8767Z" fill="#272B40"/>
<path d="M13.8348 17.9434C14.5089 17.9434 15.0554 17.397 15.0554 16.7229C15.0554 16.0488 14.5089 15.5023 13.8348 15.5023C13.1607 15.5023 12.6143 16.0488 12.6143 16.7229C12.6143 17.397 13.1607 17.9434 13.8348 17.9434Z" fill="#272B40"/>
<path d="M6.26366 21.1283H4.91915C4.6137 21.1283 4.36609 21.3759 4.36609 21.6813V21.9769C4.36609 22.2824 4.6137 22.53 4.91915 22.53H6.26366C6.56911 22.53 6.81672 22.2824 6.81672 21.9769V21.6813C6.81672 21.3759 6.56911 21.1283 6.26366 21.1283Z" stroke="#272B40" stroke-width="0.81" stroke-miterlimit="10"/>
<path d="M18.8982 21.1283H17.5537C17.2482 21.1283 17.0006 21.3759 17.0006 21.6813V21.9769C17.0006 22.2824 17.2482 22.53 17.5537 22.53H18.8982C19.2036 22.53 19.4512 22.2824 19.4512 21.9769V21.6813C19.4512 21.3759 19.2036 21.1283 18.8982 21.1283Z" stroke="#272B40" stroke-width="0.81" stroke-miterlimit="10"/>
<path d="M10.1065 15.5405H8.76201C8.5145 15.5405 8.31384 15.7411 8.31384 15.9886V17.3331C8.31384 17.5807 8.5145 17.7813 8.76201 17.7813H10.1065C10.354 17.7813 10.5547 17.5807 10.5547 17.3331V15.9886C10.5547 15.7411 10.354 15.5405 10.1065 15.5405Z" fill="#272B40"/>
<path d="M19.2891 15.5405H17.9446C17.6971 15.5405 17.4965 15.7411 17.4965 15.9886V17.3331C17.4965 17.5807 17.6971 17.7813 17.9446 17.7813H19.2891C19.5367 17.7813 19.7373 17.5807 19.7373 17.3331V15.9886C19.7373 15.7411 19.5367 15.5405 19.2891 15.5405Z" fill="#272B40"/>
</svg>
