<svg width="24" height="24" viewBox="0 0 24 24" fill="none" xmlns="http://www.w3.org/2000/svg">
<path d="M2.59998 15.6588V19.3888C2.59998 20.9888 6.73998 22.2788 11.84 22.2788C16.94 22.2788 21.08 20.9888 21.08 19.3888V15.6588" stroke="#272B40" stroke-width="1.26" stroke-miterlimit="10"/>
<path d="M10.6899 20.3788H12.9599" stroke="#272B40" stroke-width="0.49" stroke-linecap="round" stroke-linejoin="round"/>
<path d="M2.59998 11.7788V15.5088C2.59998 17.1088 6.73998 18.3988 11.84 18.3988C16.94 18.3988 21.08 17.1088 21.08 15.5088V12.2488" stroke="#272B40" stroke-width="1.26" stroke-miterlimit="10"/>
<path d="M20.4 12.8688C19.03 13.9288 15.71 14.6688 11.84 14.6688C6.73998 14.6688 2.59998 13.3788 2.59998 11.7788C2.59998 10.8588 3.97998 10.0288 6.13998 9.50879" stroke="#B0CFA1" stroke-width="0.63" stroke-miterlimit="10"/>
<path d="M21 12.9188C19.53 14.0488 15.99 14.8388 11.86 14.8388C6.41 14.8488 2 13.4688 2 11.7588C2 10.7688 3.48 9.8988 5.78 9.3288C5.78 9.3288 11.35 12.5288 15.66 13.1588C19.97 13.7888 21 12.9188 21 12.9188Z" fill="#272B40"/>
<path d="M10.6899 16.5088H12.9599" stroke="#272B40" stroke-width="0.49" stroke-linecap="round" stroke-linejoin="round"/>
<path d="M4.78001 2.74878L3.59001 6.27878C3.08001 7.78878 6.59001 10.3388 11.42 11.9588C16.26 13.5888 20.59 13.6788 21.1 12.1688L22.29 8.63878" stroke="#272B40" stroke-width="1.26" stroke-miterlimit="10"/>
<path d="M22.2937 8.63052C22.8025 7.1177 19.2939 4.5725 14.4571 2.94566C9.62024 1.31882 5.28671 1.22639 4.77788 2.73921C4.26905 4.25204 7.77761 6.79724 12.6145 8.42408C17.4513 10.0509 21.7848 10.1433 22.2937 8.63052Z" stroke="#272B40" stroke-width="1.26" stroke-miterlimit="10"/>
<path d="M10.9399 9.7988L13.0899 10.5288" stroke="#272B40" stroke-width="0.49" stroke-linecap="round" stroke-linejoin="round"/>
<path d="M14.761 6.11143C14.8385 5.88111 14.3454 5.50742 13.6596 5.27677C12.9739 5.04613 12.3552 5.04587 12.2777 5.27619C12.2003 5.50652 12.6934 5.88021 13.3791 6.11086C14.0648 6.3415 14.6836 6.34176 14.761 6.11143Z" fill="#272B40"/>
</svg>
