<svg width="24" height="24" viewBox="0 0 24 24" fill="none" xmlns="http://www.w3.org/2000/svg">
<path d="M10.0701 21.5V19.36C10.0701 18.18 11.0301 17.22 12.2101 17.22C13.3901 17.22 14.3501 18.18 14.3501 19.36V21.5" stroke="#272B40" stroke-width="0.87" stroke-miterlimit="10"/>
<path d="M6.55005 20.26C6.55005 20.26 7.87005 21.68 11.84 21.68C15.81 21.68 17.87 20.26 17.87 20.26" stroke="#272B40" stroke-width="1.31" stroke-linecap="round" stroke-linejoin="round"/>
<path d="M20.17 3H4.26C3.01 3 2 4.01 2 5.26V14.3C2 15.91 3.31 17.22 4.92 17.22H19.5C21.11 17.22 22.42 15.91 22.42 14.3V5.26C22.42 4.01 21.41 3 20.16 3H20.17Z" stroke="#272B40" stroke-width="1.31" stroke-miterlimit="10"/>
<path d="M4.48999 10.48L6.77999 13.03L10.66 9.51999L15.21 11.28L19.87 10.11" stroke="#272B40" stroke-width="0.61" stroke-miterlimit="10" stroke-linecap="round"/>
<path d="M6.90004 13.77C7.375 13.77 7.76004 13.385 7.76004 12.91C7.76004 12.435 7.375 12.05 6.90004 12.05C6.42507 12.05 6.04004 12.435 6.04004 12.91C6.04004 13.385 6.42507 13.77 6.90004 13.77Z" fill="#272B40"/>
<path d="M10.6601 10.59C11.251 10.59 11.7301 10.1109 11.7301 9.51998C11.7301 8.92904 11.251 8.44998 10.6601 8.44998C10.0691 8.44998 9.59009 8.92904 9.59009 9.51998C9.59009 10.1109 10.0691 10.59 10.6601 10.59Z" fill="#272B40"/>
<path d="M15.12 12.45C15.7661 12.45 16.29 11.9262 16.29 11.28C16.29 10.6338 15.7661 10.11 15.12 10.11C14.4738 10.11 13.95 10.6338 13.95 11.28C13.95 11.9262 14.4738 12.45 15.12 12.45Z" fill="#272B40"/>
</svg>
