<svg width="24" height="24" viewBox="0 0 24 24" fill="none" xmlns="http://www.w3.org/2000/svg">
<path d="M12.39 20.18V20.84C12.39 21.48 11.87 22 11.23 22H3.16C2.52 22 2 21.48 2 20.84V10.45C2 9.81001 2.52 9.29001 3.16 9.29001H4.81" stroke="#272B40" stroke-width="0.85" stroke-miterlimit="10"/>
<path d="M4.21997 13.01H5.20997" stroke="#272B40" stroke-width="0.85" stroke-miterlimit="10"/>
<path d="M4.21997 15.65H5.70997" stroke="#272B40" stroke-width="0.85" stroke-miterlimit="10"/>
<path d="M4.21997 18.29H7.19997" stroke="#272B40" stroke-width="0.85" stroke-miterlimit="10"/>
<path d="M13.76 18.44C18.0237 18.44 21.48 14.9836 21.48 10.72C21.48 6.45636 18.0237 3 13.76 3C9.4964 3 6.04004 6.45636 6.04004 10.72C6.04004 14.9836 9.4964 18.44 13.76 18.44Z" stroke="#272B40" stroke-width="1.25" stroke-miterlimit="10"/>
<path d="M19.9701 15.88L22.2001 17.47" stroke="#272B40" stroke-width="1.42" stroke-miterlimit="10" stroke-linecap="round"/>
<path d="M13.26 6.12C13.26 6.12 16.5 5.36 17.92 9.29" stroke="#272B40" stroke-width="0.94" stroke-miterlimit="10" stroke-linecap="round"/>
</svg>
