<svg width="24" height="24" viewBox="0 0 24 24" fill="none" xmlns="http://www.w3.org/2000/svg">
<path d="M6.75322 15.5492C9.66629 15.5492 12.0278 13.1876 12.0278 10.2746C12.0278 7.36151 9.66629 5 6.75322 5C3.84015 5 1.47864 7.36151 1.47864 10.2746C1.47864 13.1876 3.84015 15.5492 6.75322 15.5492Z" stroke="#272B40" stroke-width="1.41" stroke-miterlimit="10"/>
<path d="M12.5065 20.27C10.986 18.8622 8.98695 17.9612 6.75323 17.9612C4.51951 17.9612 2.52043 18.8622 1 20.27" stroke="#272B40" stroke-width="1.41" stroke-miterlimit="10" stroke-linecap="round"/>
<path d="M6.7533 10.2746V13.1934" stroke="#272B40" stroke-width="0.94" stroke-miterlimit="10"/>
<path d="M12.5627 17.0414C12.5627 17.0414 12.8349 11.3914 19.1043 10.4341V7.95639L23.6469 12.4989L19.3108 16.835V13.7659C19.3108 13.7659 14.6275 13.2591 12.5627 17.0414V17.0414Z" fill="#272B40"/>
</svg>
