<svg width="24" height="24" viewBox="0 0 24 24" fill="none" xmlns="http://www.w3.org/2000/svg">
<path d="M11.95 17.36C14.9324 17.36 17.35 14.9423 17.35 11.96C17.35 8.97766 14.9324 6.56 11.95 6.56C8.96771 6.56 6.55005 8.97766 6.55005 11.96C6.55005 14.9423 8.96771 17.36 11.95 17.36Z" stroke="#272B40" stroke-miterlimit="10"/>
<path d="M11.9501 14.59C13.4026 14.59 14.5801 13.4125 14.5801 11.96C14.5801 10.5075 13.4026 9.32999 11.9501 9.32999C10.4976 9.32999 9.32007 10.5075 9.32007 11.96C9.32007 13.4125 10.4976 14.59 11.9501 14.59Z" fill="#272B40"/>
<path d="M21.3 10.8H20.44C20.12 10.8 19.85 10.57 19.78 10.25C19.57 9.3 19.2 8.42 18.7 7.63C18.52 7.36 18.55 7.01 18.78 6.78L19.39 6.17C19.63 5.93 19.63 5.53 19.39 5.29L18.63 4.53C18.39 4.29 17.99 4.29 17.75 4.53L17.14 5.14C16.91 5.37 16.56 5.39 16.29 5.22C15.5 4.71 14.62 4.34 13.67 4.14C13.35 4.07 13.12 3.81 13.12 3.48V2.62C13.12 2.28 12.84 2 12.5 2H11.42C11.08 2 10.8 2.28 10.8 2.62V3.48C10.8 3.8 10.57 4.07 10.25 4.14C9.3 4.35 8.42 4.72 7.63 5.22C7.36 5.4 7.01 5.37 6.78 5.14L6.17 4.53C5.93 4.29 5.53 4.29 5.29 4.53L4.53 5.29C4.29 5.53 4.29 5.93 4.53 6.17L5.14 6.78C5.37 7.01 5.39 7.36 5.22 7.63C4.71 8.42 4.34 9.3 4.14 10.25C4.07 10.57 3.81 10.8 3.48 10.8H2.62C2.28 10.8 2 11.08 2 11.42V12.5C2 12.84 2.28 13.12 2.62 13.12H3.48C3.8 13.12 4.07 13.35 4.14 13.67C4.35 14.62 4.72 15.5 5.22 16.29C5.4 16.56 5.37 16.91 5.14 17.14L4.53 17.75C4.29 17.99 4.29 18.39 4.53 18.63L5.29 19.39C5.53 19.63 5.93 19.63 6.17 19.39L6.78 18.78C7.01 18.55 7.36 18.53 7.63 18.7C8.42 19.21 9.3 19.58 10.25 19.78C10.57 19.85 10.8 20.11 10.8 20.44V21.3C10.8 21.64 11.08 21.92 11.42 21.92H12.5C12.84 21.92 13.12 21.64 13.12 21.3V20.44C13.12 20.12 13.35 19.85 13.67 19.78C14.62 19.57 15.5 19.2 16.29 18.7C16.56 18.52 16.91 18.55 17.14 18.78L17.75 19.39C17.99 19.63 18.39 19.63 18.63 19.39L19.39 18.63C19.63 18.39 19.63 17.99 19.39 17.75L18.78 17.14C18.55 16.91 18.53 16.56 18.7 16.29C19.21 15.5 19.58 14.62 19.78 13.67C19.85 13.35 20.11 13.12 20.44 13.12H21.3C21.64 13.12 21.92 12.84 21.92 12.5V11.42C21.92 11.08 21.64 10.8 21.3 10.8V10.8Z" stroke="#272B40" stroke-width="1.5" stroke-miterlimit="10" stroke-linecap="round"/>
</svg>
