<svg width="24" height="24" viewBox="0 0 24 24" fill="none" xmlns="http://www.w3.org/2000/svg">
<path d="M18.185 16.6397H4.95577C3.32334 16.6397 2 17.9631 2 19.5955V20.0642C2 21.6966 3.32334 23.02 4.95577 23.02H18.185C19.8174 23.02 21.1408 21.6966 21.1408 20.0642V19.5955C21.1408 17.9631 19.8174 16.6397 18.185 16.6397Z" stroke="#272B40" stroke-width="1.21" stroke-miterlimit="10"/>
<path d="M5.23318 20.9156C5.83543 20.9156 6.32366 20.4274 6.32366 19.8251C6.32366 19.2228 5.83543 18.7346 5.23318 18.7346C4.63092 18.7346 4.1427 19.2228 4.1427 19.8251C4.1427 20.4274 4.63092 20.9156 5.23318 20.9156Z" fill="#272B40"/>
<path d="M9.4612 20.9156C10.0635 20.9156 10.5517 20.4274 10.5517 19.8251C10.5517 19.2228 10.0635 18.7346 9.4612 18.7346C8.85895 18.7346 8.37073 19.2228 8.37073 19.8251C8.37073 20.4274 8.85895 20.9156 9.4612 20.9156Z" fill="#272B40"/>
<path d="M13.6891 20.9156C14.2914 20.9156 14.7796 20.4274 14.7796 19.8251C14.7796 19.2228 14.2914 18.7346 13.6891 18.7346C13.0869 18.7346 12.5986 19.2228 12.5986 19.8251C12.5986 20.4274 13.0869 20.9156 13.6891 20.9156Z" fill="#272B40"/>
<path d="M17.9171 20.9156C18.5194 20.9156 19.0076 20.4274 19.0076 19.8251C19.0076 19.2228 18.5194 18.7346 17.9171 18.7346C17.3149 18.7346 16.8267 19.2228 16.8267 19.8251C16.8267 20.4274 17.3149 20.9156 17.9171 20.9156Z" fill="#272B40"/>
<path d="M2.61218 17.5389L3.0809 15.4536C3.13829 15.2049 3.34873 15.0327 3.59744 15.0327H10.1307C10.3794 15.0327 10.5899 15.2049 10.6473 15.4441L10.8769 16.4102" stroke="#272B40" stroke-width="0.68" stroke-miterlimit="10"/>
<path d="M4.95581 15.0423V16.3815" stroke="#272B40" stroke-width="0.68" stroke-miterlimit="10"/>
<path d="M6.74451 15.0423V16.3815" stroke="#272B40" stroke-width="0.68" stroke-miterlimit="10"/>
<path d="M8.53333 15.0423V16.3815" stroke="#272B40" stroke-width="0.68" stroke-miterlimit="10"/>
<path d="M18.6825 16.678L18.0033 13.3396" stroke="#272B40" stroke-width="0.68" stroke-miterlimit="10"/>
<path d="M15.2579 13.2631L14.7797 16.678" stroke="#272B40" stroke-width="0.68" stroke-miterlimit="10"/>
<path d="M16.7406 7.57159H16.7119C16.004 7.57159 15.3535 7.8203 14.837 8.22205C14.1291 8.78642 13.6796 9.63776 13.6796 10.6039C13.6796 11.7518 14.3205 12.737 15.2579 13.2631C15.6979 13.5023 16.1953 13.6266 16.7214 13.6266C17.1901 13.6266 17.6206 13.5214 18.0128 13.3396C19.0459 12.8614 19.7633 11.8187 19.7633 10.6039C19.7633 8.93947 18.4241 7.58116 16.7501 7.57159H16.7406ZM16.7119 11.79C16.0614 11.79 15.5257 11.2543 15.5257 10.6039C15.5257 9.95343 16.0614 9.40819 16.7119 9.40819C17.3623 9.40819 17.9076 9.94386 17.9076 10.6039C17.9076 11.2639 17.3719 11.79 16.7119 11.79V11.79Z" stroke="#272B40" stroke-width="0.68" stroke-miterlimit="10"/>
<path d="M17.9172 10.6039C17.9172 11.2543 17.3816 11.79 16.7215 11.79C16.0615 11.79 15.5354 11.2543 15.5354 10.6039C15.5354 9.95341 16.0711 9.40817 16.7215 9.40817C17.372 9.40817 17.9172 9.94385 17.9172 10.6039Z" stroke="#272B40" stroke-width="0.68" stroke-miterlimit="10"/>
<path d="M17.9172 10.6039C17.9172 11.2543 17.3816 11.79 16.7215 11.79C16.0615 11.79 15.5354 11.2543 15.5354 10.6039C15.5354 9.95341 16.0711 9.40817 16.7215 9.40817C17.372 9.40817 17.9172 9.94385 17.9172 10.6039Z" stroke="#272B40" stroke-width="0.68" stroke-miterlimit="10"/>
<path d="M16.7406 7.57155H16.7119C16.004 7.57155 15.3536 7.82026 14.837 8.22201L13.1152 4.96015H13.1631C13.8805 4.96015 14.5022 4.57752 14.8466 4.01315L16.7406 7.57155V7.57155Z" stroke="#272B40" stroke-width="0.68" stroke-miterlimit="10"/>
<path d="M11.4125 3.87923L8.67678 5.09406C8.39938 4.66361 7.98806 4.30012 7.48108 4.08011C7.40456 4.04185 7.32803 4.01315 7.24194 3.98445L11.3838 2.14786C11.2499 2.39656 11.1925 2.68353 11.1925 2.98006C11.1925 3.30529 11.2691 3.62096 11.4125 3.87923V3.87923Z" stroke="#272B40" stroke-width="0.68" stroke-miterlimit="10"/>
<path d="M9.14551 6.63414C9.14551 7.02633 9.06899 7.41851 8.8968 7.78201L7.96894 10.2882C7.81589 10.7091 7.32805 10.9004 6.92629 10.7186L5.3671 10.0299L4.06618 9.45599L2.91831 8.94901C2.51655 8.76726 2.33481 8.26985 2.53568 7.8681L3.76965 5.5054C4.35315 4.16621 5.88364 3.52532 7.23239 3.99403C7.30892 4.02273 7.38544 4.04186 7.47153 4.08969C7.97851 4.3097 8.39939 4.67319 8.66723 5.10364C8.96376 5.56279 9.13595 6.09846 9.13595 6.6437L9.14551 6.63414Z" stroke="#272B40" stroke-width="0.68" stroke-miterlimit="10"/>
<path d="M3.82711 11.6082L4.67844 11.8187L4.40104 12.5457C4.36278 12.7274 4.18103 12.8326 3.99929 12.7944H3.98972C3.81754 12.7466 3.70275 12.5552 3.74102 12.3926L3.83667 11.6082H3.82711Z" stroke="#272B40" stroke-width="0.68" stroke-miterlimit="10"/>
<path d="M5.36713 10.0203L4.99408 11.0247L3.92273 10.7569L4.06621 9.44641L5.36713 10.0203Z" stroke="#272B40" stroke-width="0.68" stroke-miterlimit="10"/>
<path d="M5.51063 11.4361L5.44367 11.7135C5.40541 11.8665 5.26193 11.9622 5.10888 11.9239L4.67842 11.8187L3.82709 11.6082L3.36794 11.503C3.22445 11.4648 3.1288 11.3213 3.17663 11.1778L3.24359 10.8908C3.28185 10.7378 3.42533 10.6421 3.56882 10.6804L3.92274 10.7569L4.99409 11.0152L5.31932 11.0917C5.4628 11.13 5.55846 11.2734 5.51063 11.4265V11.4361Z" stroke="#272B40" stroke-width="0.68" stroke-miterlimit="10"/>
<path d="M15.1527 2.98008C15.1527 3.3627 15.0475 3.70706 14.8562 4.01316C14.5214 4.5871 13.8901 4.96016 13.1727 4.96016H13.1248C12.3787 4.93146 11.7283 4.50101 11.4222 3.87924C11.2787 3.62097 11.2021 3.30531 11.2021 2.98008C11.2021 2.68354 11.2691 2.39658 11.3935 2.14787C11.69 1.46871 12.3883 1 13.1822 1C14.2727 1 15.1623 1.8896 15.1623 2.98008H15.1527Z" stroke="#272B40" stroke-width="0.68" stroke-miterlimit="10"/>
</svg>
