<svg width="24" height="24" viewBox="0 0 24 24" fill="none" xmlns="http://www.w3.org/2000/svg">
<path d="M7.31 4.12C9.06 4.12 10.49 5.55 10.49 7.3C10.49 9.05 9.06 10.48 7.31 10.48C5.56 10.48 4.13 9.05 4.13 7.3C4.13 5.55 5.55 4.12 7.31 4.12ZM7.31 3C4.93 3 3 4.93 3 7.31C3 9.69 4.93 11.62 7.31 11.62C9.69 11.62 11.62 9.69 11.62 7.31C11.62 4.93 9.68 3 7.31 3Z" fill="#272B40"/>
<path d="M14.9099 7.31H20.7799" stroke="#272B40" stroke-width="1.12" stroke-linecap="round" stroke-linejoin="round"/>
<path d="M17.8499 10.24V4.37" stroke="#272B40" stroke-width="1.12" stroke-linecap="round" stroke-linejoin="round"/>
<path d="M9.91 14.25C10.23 14.25 10.5 14.51 10.5 14.84V20.04C10.5 20.36 10.24 20.63 9.91 20.63H4.71C4.39 20.63 4.12 20.37 4.12 20.04V14.84C4.12 14.52 4.38 14.25 4.71 14.25H9.91ZM9.91 13.13H4.71C3.77 13.13 3 13.9 3 14.84V20.04C3 20.98 3.77 21.75 4.71 21.75H9.91C10.85 21.75 11.62 20.98 11.62 20.04V14.84C11.62 13.9 10.85 13.13 9.91 13.13V13.13Z" fill="#272B40"/>
<path d="M22.15 17.435C22.15 15.0574 20.2226 13.13 17.845 13.13C15.4675 13.13 13.54 15.0574 13.54 17.435C13.54 19.8126 15.4675 21.74 17.845 21.74C20.2226 21.74 22.15 19.8126 22.15 17.435Z" fill="#3B52A0"/>
</svg>
