<svg width="24" height="24" viewBox="0 0 24 24" fill="none" xmlns="http://www.w3.org/2000/svg">
<path d="M6.31 4.12C8.06 4.12 9.49 5.55 9.49 7.3C9.49 9.05 8.06 10.48 6.31 10.48C4.56 10.48 3.13 9.05 3.13 7.3C3.13 5.55 4.55 4.12 6.31 4.12ZM6.31 3C3.93 3 2 4.93 2 7.31C2 9.69 3.93 11.62 6.31 11.62C8.69 11.62 10.62 9.69 10.62 7.31C10.62 4.93 8.68 3 6.31 3Z" fill="white"/>
<path d="M13.91 7.31H19.78" stroke="white" stroke-width="1.12" stroke-linecap="round" stroke-linejoin="round"/>
<path d="M16.85 10.24V4.37" stroke="white" stroke-width="1.12" stroke-linecap="round" stroke-linejoin="round"/>
<path d="M8.91 14.25C9.23 14.25 9.5 14.51 9.5 14.84V20.04C9.5 20.36 9.24 20.63 8.91 20.63H3.71C3.39 20.63 3.12 20.37 3.12 20.04V14.84C3.12 14.52 3.38 14.25 3.71 14.25H8.91ZM8.91 13.13H3.71C2.77 13.13 2 13.9 2 14.84V20.04C2 20.98 2.77 21.75 3.71 21.75H8.91C9.85 21.75 10.62 20.98 10.62 20.04V14.84C10.62 13.9 9.85 13.13 8.91 13.13V13.13Z" fill="white"/>
<path d="M21.15 17.435C21.15 15.0574 19.2226 13.13 16.845 13.13C14.4675 13.13 12.54 15.0574 12.54 17.435C12.54 19.8126 14.4675 21.74 16.845 21.74C19.2226 21.74 21.15 19.8126 21.15 17.435Z" fill="white"/>
</svg>
