<svg width="24" height="24" viewBox="0 0 24 24" fill="none" xmlns="http://www.w3.org/2000/svg">
<rect x="0.5" y="0.5" width="23" height="23" rx="2.5" fill="#F4F5F5"/>
<path d="M11.6431 6.27759C9.74351 6.27759 7.8439 6.42116 6.80574 6.69727C6.80574 6.69727 6.78365 6.69727 6.76156 6.69727C6.73947 6.69727 6.70634 6.70831 6.68425 6.71936C5.64609 6.98442 5.48043 7.86796 5.48043 7.86796C4.83986 9.80071 4.83986 16.0186 5.48043 17.9403C5.48043 17.9403 5.64609 18.8239 6.68425 19.0889C6.70634 19.0889 6.73947 19.1 6.76156 19.111C6.7726 19.111 6.78365 19.111 6.80574 19.1221C8.87101 19.6743 14.4152 19.6743 16.4695 19.1221C16.4695 19.1221 16.4915 19.1221 16.5136 19.1221C16.5357 19.1221 16.5689 19.111 16.5909 19.1C17.6291 18.8349 17.7948 17.9514 17.7948 17.9514C18.0488 17.1893 18.1924 15.7756 18.2476 14.2295" stroke="#565656" stroke-width="1.5" stroke-miterlimit="10" stroke-linecap="round"/>
<g clip-path="url(#clip0_213_4050)">
<path d="M18.9196 5.73956C17.8948 4.7148 16.1154 4.7148 15.0986 5.73956L10.4276 10.4026H10.4355C10.3641 10.5059 10.3005 10.6092 10.2767 10.7283L10.2528 10.8157L10.3879 13.3657C10.3641 13.6119 10.4435 13.8582 10.6262 14.033C10.8089 14.2077 11.0472 14.2951 11.2935 14.2713L13.8435 14.4063L13.9308 14.3825C14.05 14.3507 14.1533 14.2951 14.2407 14.2236H14.2486L18.9196 9.56056C19.428 9.05216 19.714 8.36898 19.714 7.64609C19.714 6.9232 19.436 6.24797 18.9196 5.73162V5.73956ZM14.058 12.7381L11.9211 10.6012L14.3916 8.13067L16.5285 10.2676L14.058 12.7381V12.7381ZM11.5636 13.0956L11.5 11.8643L12.7949 13.1591L11.5636 13.0956V13.0956ZM18.0775 8.71851L17.3705 9.42552L15.2336 7.28862L15.9406 6.58161C16.5126 6.00965 17.5056 6.00965 18.0775 6.58161C18.3635 6.86759 18.5224 7.2489 18.5224 7.65403C18.5224 8.05917 18.3635 8.44048 18.0775 8.72646V8.71851Z" fill="#565656"/>
</g>
<rect x="0.5" y="0.5" width="23" height="23" rx="2.5" stroke="#DCE2EA"/>
<defs>
<clipPath id="clip0_213_4050">
<rect width="9.74713" height="9.7233" fill="white" transform="translate(10.2528 4.97099)"/>
</clipPath>
</defs>
</svg>
