<svg width="24" height="24" viewBox="0 0 24 24" fill="none" xmlns="http://www.w3.org/2000/svg">
<path d="M8.7 11.7425C9.51738 11.7425 10.18 11.0799 10.18 10.2625C10.18 9.44515 9.51738 8.78253 8.7 8.78253C7.88262 8.78253 7.22 9.44515 7.22 10.2625C7.22 11.0799 7.88262 11.7425 8.7 11.7425Z" stroke="#7671B3" stroke-width="1.11" stroke-miterlimit="10"/>
<path d="M5.74002 18.3925L10.17 13.9625L13.13 16.1725L16.09 11.0025L19.04 14.3325" stroke="#343434" stroke-width="1.11" stroke-linecap="round" stroke-linejoin="round"/>
<path d="M18.44 6.8025C18.44 6.8025 18.25 5.8025 17.08 5.5125C17.05 5.5125 17.02 5.4925 16.99 5.4825C16.97 5.4825 16.96 5.4725 16.94 5.4725C14.62 4.8425 8.37 4.8425 6.04 5.4725C6.04 5.4725 6.01 5.4725 5.99 5.4825C5.96 5.4825 5.93 5.5025 5.9 5.5125C4.74 5.8025 4.54 6.8025 4.54 6.8025C3.82 8.9825 3.82 15.9825 4.54 18.1625C4.54 18.1625 4.73 19.1625 5.9 19.4525C5.93 19.4525 5.96 19.4725 5.99 19.4825C6.01 19.4825 6.02 19.4925 6.04 19.4925C8.36 20.1225 14.61 20.1225 16.94 19.4925C16.94 19.4925 16.97 19.4925 16.99 19.4825C17.02 19.4825 17.05 19.4625 17.08 19.4525C18.25 19.1625 18.44 18.1625 18.44 18.1625C19.16 15.9825 19.16 8.9825 18.44 6.8025V6.8025Z" stroke="#343434" stroke-width="1.48" stroke-miterlimit="10"/>
</svg>
