<svg width="24" height="24" viewBox="0 0 24 24" fill="none" xmlns="http://www.w3.org/2000/svg">
<path d="M10.8264 14.0845L9.11467 12.3987L8.26393 13.2366L10.8264 15.7603L15.6541 11.0057L14.8033 10.1678L10.8366 14.0845H10.8264ZM16.2896 4.01009L20 7.05867L18.975 8.27003L15.2646 5.22145L16.2998 4L16.2896 4.01009ZM7.70019 4.01009L8.73543 5.23155L5.02498 8.27003L4 7.05867L7.70019 4.01009ZM11.9949 5.74637C7.99744 5.74637 4.75849 8.93628 4.75849 12.8732C4.75849 16.8101 7.99744 20 11.9949 20C15.9923 20 19.2313 16.8101 19.2313 12.8732C19.2313 8.93628 15.9923 5.74637 11.9949 5.74637ZM11.9949 18.4252C8.88917 18.4252 6.36771 15.942 6.36771 12.8833C6.36771 9.82461 8.88917 7.33123 11.9949 7.33123C15.1006 7.33123 17.622 9.81451 17.622 12.8732C17.622 15.9319 15.1006 18.4151 11.9949 18.4151V18.4252Z" fill="#2F2E4F"/>
</svg>
