<svg width="24" height="24" viewBox="0 0 24 24" fill="none" xmlns="http://www.w3.org/2000/svg">
<g clip-path="url(#clip0_213_4025)">
<rect x="0.5" y="0.5" width="23" height="23" rx="2.5" fill="#F4F5F5"/>
<path d="M6.88478 5.45069C6.88478 5.45069 6.82852 5.46476 6.80039 5.47882C5.68921 5.76014 5.51338 6.70956 5.51338 6.70956C5.16877 7.74337 5 9.93056 5 12.1107C5 14.2909 5.16877 16.4781 5.51338 17.5119C5.51338 17.5119 5.69623 18.4613 6.8074 18.7426C6.83554 18.7497 6.86368 18.7567 6.89182 18.7637C6.90588 18.7637 6.91993 18.7707 6.94103 18.7778C8.04517 19.0732 10.0847 19.2208 12.1242 19.2208C14.1637 19.2208 16.2032 19.0732 17.3073 18.7708C17.3073 18.7708 17.3355 18.7637 17.3566 18.7567C17.3847 18.7497 17.4128 18.7426 17.441 18.7356C18.5521 18.4543 18.735 17.5049 18.735 17.5049C19.0796 16.471 19.2484 14.2838 19.2484 12.1037C19.2484 9.92353 19.0796 7.73634 18.735 6.70253C18.735 6.70253 18.5521 5.7531 17.448 5.47179C17.4199 5.46476 17.3917 5.45773 17.3636 5.44366C17.3495 5.44366 17.3355 5.43663 17.3214 5.4296C16.4353 5.19048 14.9584 5.04983 13.3549 5.0006C12.6868 4.9795 12.1312 5.52102 12.1312 6.18913V13.5102" stroke="#3B52A0" stroke-width="1.5" stroke-miterlimit="10" stroke-linecap="round"/>
<path d="M14.9654 11.534L12.3774 14.1221C12.2297 14.2698 11.9835 14.2698 11.8358 14.1221L9.24777 11.534" stroke="#3B52A0" stroke-width="1.5" stroke-miterlimit="10" stroke-linecap="round"/>
<rect x="0.5" y="0.5" width="23" height="23" rx="2.5" stroke="#DCE2EA"/>
</g>
<defs>
<clipPath id="clip0_213_4025">
<rect width="24" height="24" fill="white"/>
</clipPath>
</defs>
</svg>
