<svg width="24" height="24" viewBox="0 0 24 24" fill="none" xmlns="http://www.w3.org/2000/svg">
<path d="M14.7025 5L18.9125 5.26C19.1525 5.27 19.3325 5.48 19.3125 5.71L19.0525 9.92" stroke="white" stroke-width="1.5" stroke-miterlimit="10" stroke-linecap="round"/>
<path d="M13.5125 10.54L19.0625 5.56" stroke="white" stroke-width="1.5" stroke-miterlimit="10" stroke-linecap="round"/>
<path d="M10.9525 5.63C8.9625 5.63 6.9625 5.78 5.8825 6.07C5.8825 6.07 5.8525 6.07 5.8425 6.08C5.8125 6.08 5.7825 6.10001 5.7625 6.10001C4.6825 6.37001 4.5025 7.3 4.5025 7.3C3.8325 9.32 3.8325 15.83 4.5025 17.86C4.5025 17.86 4.6825 18.79 5.7625 19.06C5.7925 19.06 5.8125 19.08 5.8425 19.08C5.8625 19.08 5.8725 19.08 5.8825 19.09C8.0425 19.67 13.8525 19.67 16.0125 19.09C16.0125 19.09 16.0425 19.09 16.0525 19.08C16.0825 19.08 16.1125 19.06 16.1325 19.06C17.2125 18.79 17.3925 17.86 17.3925 17.86C17.6525 17.07 17.8125 15.59 17.8725 13.95" stroke="white" stroke-width="1.5" stroke-miterlimit="10" stroke-linecap="round"/>
</svg>
